<svg xmlns="http://www.w3.org/2000/svg" xmlns:xlink="http://www.w3.org/1999/xlink" contentStyleType="text/css" data-diagram-type="CLASS" height="394px" preserveAspectRatio="none" style="width:572px;height:394px;background:#FFFFFF;" version="1.1" viewBox="0 0 572 394" width="572px" zoomAndPan="magnify"><defs/><g><!--class Prompt--><g id="elem_Prompt"><rect codeLine="1" fill="#F1F1F1" height="96.8906" id="Prompt" rx="2.5" ry="2.5" style="stroke:#181818;stroke-width:0.5;" width="136.3662" x="7.5" y="31.5"/><ellipse cx="46.615" cy="47.5" fill="#ADD1B2" rx="11" ry="11" style="stroke:#181818;stroke-width:1;"/><path d="M49.5837,53.1406 Q49.0056,53.4375 48.365,53.5781 Q47.7244,53.7344 47.0212,53.7344 Q44.5212,53.7344 43.1931,52.0938 Q41.8806,50.4375 41.8806,47.3125 Q41.8806,44.1875 43.1931,42.5313 Q44.5212,40.875 47.0212,40.875 Q47.7244,40.875 48.365,41.0313 Q49.0212,41.1875 49.5837,41.4844 L49.5837,44.2031 Q48.9587,43.625 48.365,43.3594 Q47.7712,43.0781 47.1462,43.0781 Q45.8025,43.0781 45.115,44.1563 Q44.4275,45.2188 44.4275,47.3125 Q44.4275,49.4063 45.115,50.4844 Q45.8025,51.5469 47.1462,51.5469 Q47.7712,51.5469 48.365,51.2813 Q48.9587,51 49.5837,50.4219 L49.5837,53.1406 Z " fill="#000000"/><text fill="#000000" font-family="sans-serif" font-size="14" lengthAdjust="spacing" textLength="50.7773" x="65.9739" y="52.3467">Prompt</text><line style="stroke:#181818;stroke-width:0.5;" x1="8.5" x2="142.8662" y1="63.5" y2="63.5"/><text fill="#000000" font-family="sans-serif" font-size="14" lengthAdjust="spacing" textLength="95.2725" x="13.5" y="80.4951">id: Long &#171;PK&#187;</text><text fill="#000000" font-family="sans-serif" font-size="14" lengthAdjust="spacing" textLength="104.5488" x="13.5" y="96.792">content: String</text><text fill="#000000" font-family="sans-serif" font-size="14" lengthAdjust="spacing" textLength="124.3662" x="13.5" y="113.0889">pythonFile: String</text><line style="stroke:#181818;stroke-width:0.5;" x1="8.5" x2="142.8662" y1="120.3906" y2="120.3906"/></g><!--class User--><g id="elem_User"><rect codeLine="7" fill="#F1F1F1" height="129.4844" id="User" rx="2.5" ry="2.5" style="stroke:#181818;stroke-width:0.5;" width="203.8438" x="180.5" y="15.5"/><ellipse cx="262.2168" cy="31.5" fill="#ADD1B2" rx="11" ry="11" style="stroke:#181818;stroke-width:1;"/><path d="M265.1855,37.1406 Q264.6074,37.4375 263.9668,37.5781 Q263.3262,37.7344 262.623,37.7344 Q260.123,37.7344 258.7949,36.0938 Q257.4824,34.4375 257.4824,31.3125 Q257.4824,28.1875 258.7949,26.5313 Q260.123,24.875 262.623,24.875 Q263.3262,24.875 263.9668,25.0313 Q264.623,25.1875 265.1855,25.4844 L265.1855,28.2031 Q264.5605,27.625 263.9668,27.3594 Q263.373,27.0781 262.748,27.0781 Q261.4043,27.0781 260.7168,28.1563 Q260.0293,29.2188 260.0293,31.3125 Q260.0293,33.4063 260.7168,34.4844 Q261.4043,35.5469 262.748,35.5469 Q263.373,35.5469 263.9668,35.2813 Q264.5605,35 265.1855,34.4219 L265.1855,37.1406 Z " fill="#000000"/><text fill="#000000" font-family="sans-serif" font-size="14" lengthAdjust="spacing" textLength="31.9102" x="282.7168" y="36.3467">User</text><line style="stroke:#181818;stroke-width:0.5;" x1="181.5" x2="383.3438" y1="47.5" y2="47.5"/><text fill="#000000" font-family="sans-serif" font-size="14" lengthAdjust="spacing" textLength="95.2725" x="186.5" y="64.4951">id: Long &#171;PK&#187;</text><text fill="#000000" font-family="sans-serif" font-size="14" lengthAdjust="spacing" textLength="121.1875" x="186.5" y="80.792">username: String</text><text fill="#000000" font-family="sans-serif" font-size="14" lengthAdjust="spacing" textLength="117.6602" x="186.5" y="97.0889">password: String</text><text fill="#000000" font-family="sans-serif" font-size="14" lengthAdjust="spacing" textLength="89.5576" x="186.5" y="113.3857">email: String</text><text fill="#000000" font-family="sans-serif" font-size="14" lengthAdjust="spacing" textLength="191.8438" x="186.5" y="129.6826">selectedMicrophone: String</text><line style="stroke:#181818;stroke-width:0.5;" x1="181.5" x2="383.3438" y1="136.9844" y2="136.9844"/></g><!--class User_Prompt--><g id="elem_User_Prompt"><rect codeLine="15" fill="#F1F1F1" height="96.8906" id="User_Prompt" rx="2.5" ry="2.5" style="stroke:#181818;stroke-width:0.5;" width="158.7334" x="192" y="282"/><ellipse cx="223.6707" cy="298" fill="#ADD1B2" rx="11" ry="11" style="stroke:#181818;stroke-width:1;"/><path d="M226.6394,303.6406 Q226.0613,303.9375 225.4207,304.0781 Q224.78,304.2344 224.0769,304.2344 Q221.5769,304.2344 220.2488,302.5938 Q218.9363,300.9375 218.9363,297.8125 Q218.9363,294.6875 220.2488,293.0313 Q221.5769,291.375 224.0769,291.375 Q224.78,291.375 225.4207,291.5313 Q226.0769,291.6875 226.6394,291.9844 L226.6394,294.7031 Q226.0144,294.125 225.4207,293.8594 Q224.8269,293.5781 224.2019,293.5781 Q222.8582,293.5781 222.1707,294.6563 Q221.4832,295.7188 221.4832,297.8125 Q221.4832,299.9063 222.1707,300.9844 Q222.8582,302.0469 224.2019,302.0469 Q224.8269,302.0469 225.4207,301.7813 Q226.0144,301.5 226.6394,300.9219 L226.6394,303.6406 Z " fill="#000000"/><text fill="#000000" font-family="sans-serif" font-size="14" lengthAdjust="spacing" textLength="89.6875" x="241.3752" y="302.8467">User_Prompt</text><line style="stroke:#181818;stroke-width:0.5;" x1="193" x2="349.7334" y1="314" y2="314"/><text fill="#000000" font-family="sans-serif" font-size="14" lengthAdjust="spacing" textLength="126.0479" x="198" y="330.9951">userId: Long &#171;PK&#187;</text><text fill="#000000" font-family="sans-serif" font-size="14" lengthAdjust="spacing" textLength="146.7334" x="198" y="347.292">promptId: Long &#171;PK&#187;</text><text fill="#000000" font-family="sans-serif" font-size="14" lengthAdjust="spacing" textLength="107.6934" x="198" y="363.5889">active: boolean</text><line style="stroke:#181818;stroke-width:0.5;" x1="193" x2="349.7334" y1="370.8906" y2="370.8906"/></g><!--class LatestUsed--><g id="elem_LatestUsed"><rect codeLine="21" fill="#F1F1F1" height="113.1875" id="LatestUsed" rx="2.5" ry="2.5" style="stroke:#181818;stroke-width:0.5;" width="142.8809" x="7" y="274"/><ellipse cx="36.6588" cy="290" fill="#ADD1B2" rx="11" ry="11" style="stroke:#181818;stroke-width:1;"/><path d="M39.6276,295.6406 Q39.0495,295.9375 38.4088,296.0781 Q37.7682,296.2344 37.0651,296.2344 Q34.5651,296.2344 33.237,294.5938 Q31.9245,292.9375 31.9245,289.8125 Q31.9245,286.6875 33.237,285.0313 Q34.5651,283.375 37.0651,283.375 Q37.7682,283.375 38.4088,283.5313 Q39.0651,283.6875 39.6276,283.9844 L39.6276,286.7031 Q39.0026,286.125 38.4088,285.8594 Q37.8151,285.5781 37.1901,285.5781 Q35.8463,285.5781 35.1588,286.6563 Q34.4713,287.7188 34.4713,289.8125 Q34.4713,291.9063 35.1588,292.9844 Q35.8463,294.0469 37.1901,294.0469 Q37.8151,294.0469 38.4088,293.7813 Q39.0026,293.5 39.6276,292.9219 L39.6276,295.6406 Z " fill="#000000"/><text fill="#000000" font-family="sans-serif" font-size="14" lengthAdjust="spacing" textLength="78.3057" x="53.9164" y="294.8467">LatestUsed</text><line style="stroke:#181818;stroke-width:0.5;" x1="8" x2="148.8809" y1="306" y2="306"/><text fill="#000000" font-family="sans-serif" font-size="14" lengthAdjust="spacing" textLength="95.2725" x="13" y="322.9951">id: Long &#171;PK&#187;</text><text fill="#000000" font-family="sans-serif" font-size="14" lengthAdjust="spacing" textLength="86.8438" x="13" y="339.292">userId: Long</text><text fill="#000000" font-family="sans-serif" font-size="14" lengthAdjust="spacing" textLength="107.5293" x="13" y="355.5889">promptId: Long</text><text fill="#000000" font-family="sans-serif" font-size="14" lengthAdjust="spacing" textLength="130.8809" x="13" y="371.8857">usedOn: DateTime</text><line style="stroke:#181818;stroke-width:0.5;" x1="8" x2="148.8809" y1="379.1875" y2="379.1875"/></g><!--class Model--><g id="elem_Model"><rect codeLine="28" fill="#F1F1F1" height="145.7813" id="Model" rx="2.5" ry="2.5" style="stroke:#181818;stroke-width:0.5;" width="146.2441" x="419.5" y="7"/><ellipse cx="467.355" cy="23" fill="#ADD1B2" rx="11" ry="11" style="stroke:#181818;stroke-width:1;"/><path d="M470.3237,28.6406 Q469.7456,28.9375 469.105,29.0781 Q468.4644,29.2344 467.7612,29.2344 Q465.2612,29.2344 463.9331,27.5938 Q462.6206,25.9375 462.6206,22.8125 Q462.6206,19.6875 463.9331,18.0313 Q465.2612,16.375 467.7612,16.375 Q468.4644,16.375 469.105,16.5313 Q469.7612,16.6875 470.3237,16.9844 L470.3237,19.7031 Q469.6987,19.125 469.105,18.8594 Q468.5112,18.5781 467.8862,18.5781 Q466.5425,18.5781 465.855,19.6563 Q465.1675,20.7188 465.1675,22.8125 Q465.1675,24.9063 465.855,25.9844 Q466.5425,27.0469 467.8862,27.0469 Q468.5112,27.0469 469.105,26.7813 Q469.6987,26.5 470.3237,25.9219 L470.3237,28.6406 Z " fill="#000000"/><text fill="#000000" font-family="sans-serif" font-size="14" lengthAdjust="spacing" textLength="42.0342" x="487.855" y="27.8467">Model</text><line style="stroke:#181818;stroke-width:0.5;" x1="420.5" x2="564.7441" y1="39" y2="39"/><text fill="#000000" font-family="sans-serif" font-size="14" lengthAdjust="spacing" textLength="95.2725" x="425.5" y="55.9951">id: Long &#171;PK&#187;</text><text fill="#000000" font-family="sans-serif" font-size="14" lengthAdjust="spacing" textLength="134.2441" x="425.5" y="72.292">modelname: String</text><text fill="#000000" font-family="sans-serif" font-size="14" lengthAdjust="spacing" textLength="116.1289" x="425.5" y="88.5889">language: String</text><text fill="#000000" font-family="sans-serif" font-size="14" lengthAdjust="spacing" textLength="90.8838" x="425.5" y="104.8857">precision: int</text><text fill="#000000" font-family="sans-serif" font-size="14" lengthAdjust="spacing" textLength="54.5645" x="425.5" y="121.1826">size: int</text><text fill="#000000" font-family="sans-serif" font-size="14" lengthAdjust="spacing" textLength="82.7764" x="425.5" y="137.4795">path: String</text><line style="stroke:#181818;stroke-width:0.5;" x1="420.5" x2="564.7441" y1="144.7813" y2="144.7813"/></g><!--class User_Model--><g id="elem_User_Model"><rect codeLine="37" fill="#F1F1F1" height="96.8906" id="User_Model" rx="2.5" ry="2.5" style="stroke:#181818;stroke-width:0.5;" width="119.6934" x="409.5" y="282"/><ellipse cx="427.5371" cy="298" fill="#ADD1B2" rx="11" ry="11" style="stroke:#181818;stroke-width:1;"/><path d="M430.5058,303.6406 Q429.9277,303.9375 429.2871,304.0781 Q428.6464,304.2344 427.9433,304.2344 Q425.4433,304.2344 424.1152,302.5938 Q422.8027,300.9375 422.8027,297.8125 Q422.8027,294.6875 424.1152,293.0313 Q425.4433,291.375 427.9433,291.375 Q428.6464,291.375 429.2871,291.5313 Q429.9433,291.6875 430.5058,291.9844 L430.5058,294.7031 Q429.8808,294.125 429.2871,293.8594 Q428.6933,293.5781 428.0683,293.5781 Q426.7246,293.5781 426.0371,294.6563 Q425.3496,295.7188 425.3496,297.8125 Q425.3496,299.9063 426.0371,300.9844 Q426.7246,302.0469 428.0683,302.0469 Q428.6933,302.0469 429.2871,301.7813 Q429.8808,301.5 430.5058,300.9219 L430.5058,303.6406 Z " fill="#000000"/><text fill="#000000" font-family="sans-serif" font-size="14" lengthAdjust="spacing" textLength="80.9443" x="442.212" y="302.8467">User_Model</text><line style="stroke:#181818;stroke-width:0.5;" x1="410.5" x2="528.1934" y1="314" y2="314"/><text fill="#000000" font-family="sans-serif" font-size="14" lengthAdjust="spacing" textLength="86.8438" x="415.5" y="330.9951">userId: Long</text><text fill="#000000" font-family="sans-serif" font-size="14" lengthAdjust="spacing" textLength="99.9004" x="415.5" y="347.292">modelId: Long</text><text fill="#000000" font-family="sans-serif" font-size="14" lengthAdjust="spacing" textLength="107.6934" x="415.5" y="363.5889">active: boolean</text><line style="stroke:#181818;stroke-width:0.5;" x1="410.5" x2="528.1934" y1="370.8906" y2="370.8906"/></g><!--link User to User_Prompt--><g id="link_User_User_Prompt"><path codeLine="43" d="M279.68,144.67 C277.79,187.38 275.34,242.73 273.62,281.69 " fill="transparent" id="User-User_Prompt" style="stroke:#181818;stroke-width:1;"/><text fill="#000000" font-family="sans-serif" font-size="13" lengthAdjust="spacing" textLength="8.271" x="270.9161" y="165.0612">1</text><text fill="#000000" font-family="sans-serif" font-size="13" lengthAdjust="spacing" textLength="6.5" x="267.5502" y="270.8553">*</text></g><!--link Prompt to User_Prompt--><g id="link_Prompt_User_Prompt"><path codeLine="44" d="M113.06,128.62 C147.74,172.59 198.99,237.57 233.73,281.62 " fill="transparent" id="Prompt-User_Prompt" style="stroke:#181818;stroke-width:1;"/><text fill="#000000" font-family="sans-serif" font-size="13" lengthAdjust="spacing" textLength="8.271" x="109.7727" y="148.5958">1</text><text fill="#000000" font-family="sans-serif" font-size="13" lengthAdjust="spacing" textLength="6.5" x="222.0506" y="270.7755">*</text></g><!--link User to LatestUsed--><g id="link_User_LatestUsed"><path codeLine="45" d="M230.23,144.67 C197.53,184.51 155.8,235.34 124.38,273.61 " fill="transparent" id="User-LatestUsed" style="stroke:#181818;stroke-width:1;"/><text fill="#000000" font-family="sans-serif" font-size="13" lengthAdjust="spacing" textLength="8.271" x="215.7485" y="165.0612">1</text><text fill="#000000" font-family="sans-serif" font-size="13" lengthAdjust="spacing" textLength="6.5" x="123.6437" y="262.826">*</text></g><!--link Prompt to LatestUsed--><g id="link_Prompt_LatestUsed"><path codeLine="46" d="M76.07,128.62 C76.58,170.05 77.3,230.14 77.83,273.79 " fill="transparent" id="Prompt-LatestUsed" style="stroke:#181818;stroke-width:1;"/><text fill="#000000" font-family="sans-serif" font-size="13" lengthAdjust="spacing" textLength="8.271" x="67.581" y="148.5958">1</text><text fill="#000000" font-family="sans-serif" font-size="13" lengthAdjust="spacing" textLength="6.5" x="71.4204" y="263.028">*</text></g><!--link User to User_Model--><g id="link_User_User_Model"><path codeLine="47" d="M330.41,144.67 C362.55,187.38 404.21,242.73 433.52,281.69 " fill="transparent" id="User-User_Model" style="stroke:#181818;stroke-width:1;"/><text fill="#000000" font-family="sans-serif" font-size="13" lengthAdjust="spacing" textLength="8.271" x="327.5118" y="165.0612">1</text><text fill="#000000" font-family="sans-serif" font-size="13" lengthAdjust="spacing" textLength="6.5" x="422.0952" y="270.8553">*</text></g><!--link Model to User_Model--><g id="link_Model_User_Model"><path codeLine="48" d="M485.82,153.21 C481.98,194.62 477.28,245.45 473.91,281.87 " fill="transparent" id="Model-User_Model" style="stroke:#181818;stroke-width:1;"/><text fill="#000000" font-family="sans-serif" font-size="13" lengthAdjust="spacing" textLength="8.271" x="476.8367" y="172.7336">1</text><text fill="#000000" font-family="sans-serif" font-size="13" lengthAdjust="spacing" textLength="6.5" x="468.165" y="271.0606">*</text></g><!--SRC=[TP7DQiCm48JlUWhXOy27Nat8gHHA4n9eUYwgj3WB-aFQjBIbxrvPQMJ7bM_MZFQRrLXg4IC_16SyyM-6gkDRPtk-NX-UDXicdIMmrF5d2cXxvZ_fvEm3QYZI3sCoGruYX0hYd6Ghp3ZWq-KF5rGHm0ZKvHH1WoHGEvJ1-PIs4FLQbXuI7cUfFfjpLKZ2zyHxSqw3i2DmAmWY9QnQUC6LD0CFdjhRZjydm14DZCYTKw0hD3FeDuLeOVkpw2SD1P0OqIKkMc8Hl-3ovGMT5jgunjqicxFAgVBw_C-QkwPjssRLJ7jbV_NMpTdSMD__iObNIyjxiylsDUiN]--></g></svg>