<svg xmlns="http://www.w3.org/2000/svg" xmlns:xlink="http://www.w3.org/1999/xlink" contentStyleType="text/css" data-diagram-type="CLASS" height="345px" preserveAspectRatio="none" style="width:324px;height:345px;background:#FFFFFF;" version="1.1" viewBox="0 0 324 345" width="324px" zoomAndPan="magnify"><defs/><g><!--class Prompt--><g id="elem_Prompt"><rect codeLine="1" fill="#F1F1F1" height="96.8906" id="Prompt" rx="2.5" ry="2.5" style="stroke:#181818;stroke-width:0.5;" width="137.6582" x="7" y="225"/><ellipse cx="46.6964" cy="241" fill="#ADD1B2" rx="11" ry="11" style="stroke:#181818;stroke-width:1;"/><path d="M49.6651,246.6406 Q49.087,246.9375 48.4464,247.0781 Q47.8058,247.2344 47.1026,247.2344 Q44.6026,247.2344 43.2745,245.5938 Q41.962,243.9375 41.962,240.8125 Q41.962,237.6875 43.2745,236.0313 Q44.6026,234.375 47.1026,234.375 Q47.8058,234.375 48.4464,234.5313 Q49.1026,234.6875 49.6651,234.9844 L49.6651,237.7031 Q49.0401,237.125 48.4464,236.8594 Q47.8526,236.5781 47.2276,236.5781 Q45.8839,236.5781 45.1964,237.6563 Q44.5089,238.7188 44.5089,240.8125 Q44.5089,242.9063 45.1964,243.9844 Q45.8839,245.0469 47.2276,245.0469 Q47.8526,245.0469 48.4464,244.7813 Q49.0401,244.5 49.6651,243.9219 L49.6651,246.6406 Z " fill="#000000"/><text fill="#000000" font-family="sans-serif" font-size="14" lengthAdjust="spacing" textLength="50.7773" x="66.1845" y="245.8467">Prompt</text><line style="stroke:#181818;stroke-width:0.5;" x1="8" x2="143.6582" y1="257" y2="257"/><text fill="#000000" font-family="sans-serif" font-size="14" lengthAdjust="spacing" textLength="95.2725" x="13" y="273.9951">id: Long &#171;PK&#187;</text><text fill="#000000" font-family="sans-serif" font-size="14" lengthAdjust="spacing" textLength="125.6582" x="13" y="290.292">userId: Long &#171;FK&#187;</text><text fill="#000000" font-family="sans-serif" font-size="14" lengthAdjust="spacing" textLength="104.5488" x="13" y="306.5889">content: String</text><line style="stroke:#181818;stroke-width:0.5;" x1="8" x2="143.6582" y1="313.8906" y2="313.8906"/></g><!--class User--><g id="elem_User"><rect codeLine="7" fill="#F1F1F1" height="80.5938" id="User" rx="2.5" ry="2.5" style="stroke:#181818;stroke-width:0.5;" width="133.1875" x="95.5" y="7"/><ellipse cx="141.8887" cy="23" fill="#ADD1B2" rx="11" ry="11" style="stroke:#181818;stroke-width:1;"/><path d="M144.8574,28.6406 Q144.2793,28.9375 143.6387,29.0781 Q142.998,29.2344 142.2949,29.2344 Q139.7949,29.2344 138.4668,27.5938 Q137.1543,25.9375 137.1543,22.8125 Q137.1543,19.6875 138.4668,18.0313 Q139.7949,16.375 142.2949,16.375 Q142.998,16.375 143.6387,16.5313 Q144.2949,16.6875 144.8574,16.9844 L144.8574,19.7031 Q144.2324,19.125 143.6387,18.8594 Q143.0449,18.5781 142.4199,18.5781 Q141.0762,18.5781 140.3887,19.6563 Q139.7012,20.7188 139.7012,22.8125 Q139.7012,24.9063 140.3887,25.9844 Q141.0762,27.0469 142.4199,27.0469 Q143.0449,27.0469 143.6387,26.7813 Q144.2324,26.5 144.8574,25.9219 L144.8574,28.6406 Z " fill="#000000"/><text fill="#000000" font-family="sans-serif" font-size="14" lengthAdjust="spacing" textLength="31.9102" x="162.3887" y="27.8467">User</text><line style="stroke:#181818;stroke-width:0.5;" x1="96.5" x2="227.6875" y1="39" y2="39"/><text fill="#000000" font-family="sans-serif" font-size="14" lengthAdjust="spacing" textLength="95.2725" x="101.5" y="55.9951">id: Long &#171;PK&#187;</text><text fill="#000000" font-family="sans-serif" font-size="14" lengthAdjust="spacing" textLength="121.1875" x="101.5" y="72.292">username: String</text><line style="stroke:#181818;stroke-width:0.5;" x1="96.5" x2="227.6875" y1="79.5938" y2="79.5938"/></g><!--class Settings--><g id="elem_Settings"><rect codeLine="12" fill="#F1F1F1" height="129.4844" id="Settings" rx="2.5" ry="2.5" style="stroke:#181818;stroke-width:0.5;" width="137.6582" x="180" y="209"/><ellipse cx="216.7063" cy="225" fill="#ADD1B2" rx="11" ry="11" style="stroke:#181818;stroke-width:1;"/><path d="M219.6751,230.6406 Q219.097,230.9375 218.4563,231.0781 Q217.8157,231.2344 217.1126,231.2344 Q214.6126,231.2344 213.2845,229.5938 Q211.972,227.9375 211.972,224.8125 Q211.972,221.6875 213.2845,220.0313 Q214.6126,218.375 217.1126,218.375 Q217.8157,218.375 218.4563,218.5313 Q219.1126,218.6875 219.6751,218.9844 L219.6751,221.7031 Q219.0501,221.125 218.4563,220.8594 Q217.8626,220.5781 217.2376,220.5781 Q215.8938,220.5781 215.2063,221.6563 Q214.5188,222.7188 214.5188,224.8125 Q214.5188,226.9063 215.2063,227.9844 Q215.8938,229.0469 217.2376,229.0469 Q217.8626,229.0469 218.4563,228.7813 Q219.0501,228.5 219.6751,227.9219 L219.6751,230.6406 Z " fill="#000000"/><text fill="#000000" font-family="sans-serif" font-size="14" lengthAdjust="spacing" textLength="57.4219" x="235.53" y="229.8467">Settings</text><line style="stroke:#181818;stroke-width:0.5;" x1="181" x2="316.6582" y1="241" y2="241"/><text fill="#000000" font-family="sans-serif" font-size="14" lengthAdjust="spacing" textLength="95.2725" x="186" y="257.9951">id: Long &#171;PK&#187;</text><text fill="#000000" font-family="sans-serif" font-size="14" lengthAdjust="spacing" textLength="125.6582" x="186" y="274.292">userId: Long &#171;FK&#187;</text><text fill="#000000" font-family="sans-serif" font-size="14" lengthAdjust="spacing" textLength="122.582" x="186" y="290.5889">setting1: boolean</text><text fill="#000000" font-family="sans-serif" font-size="14" lengthAdjust="spacing" textLength="122.582" x="186" y="306.8857">setting2: boolean</text><text fill="#000000" font-family="sans-serif" font-size="14" lengthAdjust="spacing" textLength="78.4902" x="186" y="323.1826">...: boolean</text><line style="stroke:#181818;stroke-width:0.5;" x1="181" x2="316.6582" y1="330.4844" y2="330.4844"/></g><!--link User to Prompt--><g id="link_User_Prompt"><path codeLine="20" d="M146.82,88.03 C132.16,126.21 109.94,184.09 94.31,224.81 " fill="transparent" id="User-Prompt" style="stroke:#181818;stroke-width:1;"/><text fill="#000000" font-family="sans-serif" font-size="13" lengthAdjust="spacing" textLength="8.271" x="135.7698" y="107.7946">1</text><text fill="#000000" font-family="sans-serif" font-size="13" lengthAdjust="spacing" textLength="6.5" x="90.5222" y="213.9922">*</text></g><!--link User to Settings--><g id="link_User_Settings"><path codeLine="21" d="M177.35,88.03 C190.33,121.44 209.16,169.93 224.26,208.8 " fill="transparent" id="User-Settings" style="stroke:#181818;stroke-width:1;"/><text fill="#000000" font-family="sans-serif" font-size="13" lengthAdjust="spacing" textLength="8.271" x="171.1656" y="107.7946">1</text><text fill="#000000" font-family="sans-serif" font-size="13" lengthAdjust="spacing" textLength="6.5" x="215.272" y="197.9508">*</text></g><!--SRC=[Iyv9B2vM22ZApoqeKQZcoaonKl39pqjNiB49yBQpuoejJYtoH8YvWSIIy_DAKlDAh1I2IueoyzAvQhcuai6cX08Lup0ZBp4t5LD3S6f92L2Wc4YBYo7A3QqKalBpSr8Jys0YHWWHFJqz10Te4TXDIePAkhgwIbfAK8-YYyBS0G00]--></g></svg>